<svg width="23" height="23" viewBox="0 0 23 23"  xmlns="http://www.w3.org/2000/svg">
<path d="M7.6676 11.5C7.6676 9.383 9.38338 7.66636 11.5005 7.66636C13.6176 7.66636 15.3343 9.383 15.3343 11.5C15.3343 13.617 13.6176 15.3336 11.5005 15.3336C9.38338 15.3336 7.6676 13.617 7.6676 11.5ZM5.5951 11.5C5.5951 14.7614 8.2389 17.4051 11.5005 17.4051C14.762 17.4051 17.4058 14.7614 17.4058 11.5C17.4058 8.23857 14.762 5.59487 11.5005 5.59487C8.2389 5.59487 5.5951 8.23857 5.5951 11.5ZM16.2595 5.36078C16.2595 6.1225 16.8773 6.74116 17.6399 6.74116C18.4017 6.74116 19.0204 6.1225 19.0204 5.36078C19.0204 4.59907 18.4026 3.98134 17.6399 3.98134C16.8773 3.98134 16.2595 4.59907 16.2595 5.36078ZM6.85383 20.8607C5.73258 20.8096 5.12319 20.6229 4.71816 20.465C4.18123 20.256 3.7985 20.007 3.39533 19.6048C2.99309 19.2026 2.7432 18.8199 2.53512 18.283C2.3772 17.8779 2.19048 17.2686 2.13938 16.1474C2.08365 14.9351 2.0725 14.571 2.0725 11.5C2.0725 8.429 2.08458 8.06579 2.13938 6.85263C2.19048 5.73142 2.37813 5.12298 2.53512 4.71704C2.74413 4.18013 2.99309 3.79742 3.39533 3.39426C3.79757 2.99204 4.1803 2.74216 4.71816 2.53409C5.12319 2.37617 5.73258 2.18946 6.85383 2.13837C8.06612 2.08263 8.43027 2.07149 11.5005 2.07149C14.5716 2.07149 14.9348 2.08356 16.148 2.13837C17.2693 2.18946 17.8777 2.3771 18.2837 2.53409C18.8206 2.74216 19.2034 2.99204 19.6065 3.39426C20.0088 3.79649 20.2577 4.18013 20.4667 4.71704C20.6247 5.12205 20.8114 5.73142 20.8625 6.85263C20.9182 8.06579 20.9294 8.429 20.9294 11.5C20.9294 14.5701 20.9182 14.9342 20.8625 16.1474C20.8114 17.2686 20.6237 17.8779 20.4667 18.283C20.2577 18.8199 20.0088 19.2026 19.6065 19.6048C19.2043 20.007 18.8206 20.256 18.2837 20.465C17.8787 20.6229 17.2693 20.8096 16.148 20.8607C14.9357 20.9164 14.5716 20.9276 11.5005 20.9276C8.43027 20.9276 8.06612 20.9164 6.85383 20.8607ZM6.75908 0.0696688C5.53471 0.125404 4.69866 0.319548 3.96757 0.603796C3.2114 0.897334 2.57042 1.2912 1.93037 1.93029C1.29125 2.56939 0.897371 3.21034 0.603821 3.96741C0.319561 4.69847 0.125409 5.53449 0.0696716 6.7588C0.0130054 7.98498 0 8.37698 0 11.5C0 14.623 0.0130054 15.015 0.0696716 16.2412C0.125409 17.4655 0.319561 18.3015 0.603821 19.0326C0.897371 19.7887 1.29032 20.4306 1.93037 21.0697C2.56949 21.7088 3.21047 22.1017 3.96757 22.3962C4.69958 22.6805 5.53471 22.8746 6.75908 22.9303C7.98623 22.9861 8.37732 23 11.5005 23C14.6245 23 15.0156 22.987 16.2419 22.9303C17.4662 22.8746 18.3023 22.6805 19.0334 22.3962C19.7895 22.1017 20.4305 21.7088 21.0706 21.0697C21.7097 20.4306 22.1026 19.7887 22.3971 19.0326C22.6814 18.3015 22.8764 17.4655 22.9313 16.2412C22.987 15.0141 23 14.623 23 11.5C23 8.37698 22.987 7.98498 22.9313 6.7588C22.8755 5.53449 22.6814 4.69847 22.3971 3.96741C22.1026 3.21127 21.7097 2.57032 21.0706 1.93029C20.4314 1.2912 19.7895 0.897334 19.0343 0.603796C18.3023 0.319548 17.4662 0.124475 16.2428 0.0696688C15.0166 0.0139338 14.6245 0 11.5014 0C8.37732 0 7.98623 0.0130048 6.75908 0.0696688Z" />
</svg>
