<svg width="23" height="23" viewBox="0 0 23 23" fill="none" xmlns="http://www.w3.org/2000/svg">
<path d="M7.17805 17.9997V8.55356H4.1769V17.9997H7.17836H7.17805ZM5.6781 7.26408C6.72445 7.26408 7.37587 6.53873 7.37587 5.63224C7.35628 4.70511 6.72445 4 5.698 4C4.67085 4 4 4.70511 4 5.63216C4 6.53864 4.65118 7.26399 5.65844 7.26399H5.67787L5.6781 7.26408ZM8.83923 17.9997H11.8401V12.7251C11.8401 12.4432 11.8597 12.1605 11.939 11.9591C12.1559 11.3948 12.6497 10.8107 13.4789 10.8107C14.5646 10.8107 14.9992 11.6768 14.9992 12.9468V17.9997H18V12.5836C18 9.68224 16.5196 8.3321 14.5452 8.3321C12.9264 8.3321 12.2154 9.27867 11.8204 9.92337H11.8404V8.55389H8.83939C8.87856 9.44005 8.83915 18 8.83915 18L8.83923 17.9997Z" fill="#D1D1D1"/>
<rect x="0.5" y="0.5" width="22" height="22" rx="4.5" stroke="#D1D1D1"/>
</svg>
